<mxfile host="Electron" modified="2023-09-26T05:13:56.550Z" agent="Mozilla/5.0 (Windows NT 10.0; Win64; x64) AppleWebKit/537.36 (KHTML, like Gecko) draw.io/21.7.5 Chrome/114.0.5735.289 Electron/25.8.1 Safari/537.36" etag="c2eEuoylYgwdsYlHOn1d" version="21.7.5" type="device">
  <diagram name="PÃ¡gina-1" id="t6kS4LjhJOuVymsfz2fg">
    <mxGraphModel dx="1098" dy="820" grid="1" gridSize="10" guides="1" tooltips="1" connect="1" arrows="1" fold="1" page="1" pageScale="1" pageWidth="827" pageHeight="1169" math="0" shadow="0">
      <root>
        <mxCell id="0" />
        <mxCell id="1" parent="0" />
        <mxCell id="dlkQqlAD6oVQRfHrf9M2-29" style="edgeStyle=orthogonalEdgeStyle;rounded=0;orthogonalLoop=1;jettySize=auto;html=1;entryX=0;entryY=0.5;entryDx=0;entryDy=0;" edge="1" parent="1" source="dlkQqlAD6oVQRfHrf9M2-1" target="dlkQqlAD6oVQRfHrf9M2-9">
          <mxGeometry relative="1" as="geometry" />
        </mxCell>
        <mxCell id="dlkQqlAD6oVQRfHrf9M2-1" value="SENTIR" style="rounded=1;whiteSpace=wrap;html=1;" vertex="1" parent="1">
          <mxGeometry x="90" y="240" width="120" height="60" as="geometry" />
        </mxCell>
        <mxCell id="dlkQqlAD6oVQRfHrf9M2-7" style="edgeStyle=orthogonalEdgeStyle;rounded=0;orthogonalLoop=1;jettySize=auto;html=1;dashed=1;" edge="1" parent="1" source="dlkQqlAD6oVQRfHrf9M2-6" target="dlkQqlAD6oVQRfHrf9M2-1">
          <mxGeometry relative="1" as="geometry" />
        </mxCell>
        <mxCell id="dlkQqlAD6oVQRfHrf9M2-6" value="" style="shape=image;verticalLabelPosition=bottom;labelBackgroundColor=default;verticalAlign=top;aspect=fixed;imageAspect=0;image=https://images.vexels.com/media/users/3/158265/isolated/lists/62610dcc828ec36764fc4bc18eb6a380-icone-de-boca-feminina-falando.png;clipPath=inset(21.88% 3.91% 22.66% 4.3%);" vertex="1" parent="1">
          <mxGeometry x="57" y="50" width="186" height="112.39148936170213" as="geometry" />
        </mxCell>
        <mxCell id="dlkQqlAD6oVQRfHrf9M2-21" style="edgeStyle=orthogonalEdgeStyle;rounded=0;orthogonalLoop=1;jettySize=auto;html=1;entryX=0;entryY=0.5;entryDx=0;entryDy=0;" edge="1" parent="1" source="dlkQqlAD6oVQRfHrf9M2-9" target="dlkQqlAD6oVQRfHrf9M2-20">
          <mxGeometry relative="1" as="geometry" />
        </mxCell>
        <mxCell id="dlkQqlAD6oVQRfHrf9M2-9" value="PENSAR" style="rounded=1;whiteSpace=wrap;html=1;" vertex="1" parent="1">
          <mxGeometry x="360" y="240" width="120" height="60" as="geometry" />
        </mxCell>
        <mxCell id="dlkQqlAD6oVQRfHrf9M2-16" style="edgeStyle=orthogonalEdgeStyle;rounded=0;orthogonalLoop=1;jettySize=auto;html=1;entryX=0.25;entryY=1;entryDx=0;entryDy=0;dashed=1;" edge="1" parent="1" source="dlkQqlAD6oVQRfHrf9M2-10" target="dlkQqlAD6oVQRfHrf9M2-9">
          <mxGeometry relative="1" as="geometry" />
        </mxCell>
        <mxCell id="dlkQqlAD6oVQRfHrf9M2-10" value="COMIDA" style="rounded=1;whiteSpace=wrap;html=1;" vertex="1" parent="1">
          <mxGeometry x="250" y="450" width="120" height="60" as="geometry" />
        </mxCell>
        <mxCell id="dlkQqlAD6oVQRfHrf9M2-17" style="edgeStyle=orthogonalEdgeStyle;rounded=0;orthogonalLoop=1;jettySize=auto;html=1;dashed=1;entryX=0.692;entryY=0.967;entryDx=0;entryDy=0;entryPerimeter=0;" edge="1" parent="1" source="dlkQqlAD6oVQRfHrf9M2-11" target="dlkQqlAD6oVQRfHrf9M2-9">
          <mxGeometry relative="1" as="geometry" />
        </mxCell>
        <mxCell id="dlkQqlAD6oVQRfHrf9M2-11" value="PESSOA" style="rounded=1;whiteSpace=wrap;html=1;" vertex="1" parent="1">
          <mxGeometry x="480" y="450" width="120" height="60" as="geometry" />
        </mxCell>
        <mxCell id="dlkQqlAD6oVQRfHrf9M2-15" style="edgeStyle=orthogonalEdgeStyle;rounded=0;orthogonalLoop=1;jettySize=auto;html=1;startArrow=classic;startFill=1;" edge="1" parent="1" source="dlkQqlAD6oVQRfHrf9M2-12" target="dlkQqlAD6oVQRfHrf9M2-10">
          <mxGeometry relative="1" as="geometry" />
        </mxCell>
        <mxCell id="dlkQqlAD6oVQRfHrf9M2-12" value="COMIDA" style="shape=cylinder3;whiteSpace=wrap;html=1;boundedLbl=1;backgroundOutline=1;size=15;" vertex="1" parent="1">
          <mxGeometry x="280" y="550" width="60" height="80" as="geometry" />
        </mxCell>
        <mxCell id="dlkQqlAD6oVQRfHrf9M2-14" style="edgeStyle=orthogonalEdgeStyle;rounded=0;orthogonalLoop=1;jettySize=auto;html=1;entryX=0.5;entryY=1;entryDx=0;entryDy=0;startArrow=classic;startFill=1;" edge="1" parent="1" source="dlkQqlAD6oVQRfHrf9M2-13" target="dlkQqlAD6oVQRfHrf9M2-11">
          <mxGeometry relative="1" as="geometry" />
        </mxCell>
        <mxCell id="dlkQqlAD6oVQRfHrf9M2-13" value="PESSOA" style="shape=cylinder3;whiteSpace=wrap;html=1;boundedLbl=1;backgroundOutline=1;size=15;" vertex="1" parent="1">
          <mxGeometry x="510" y="550" width="60" height="80" as="geometry" />
        </mxCell>
        <mxCell id="dlkQqlAD6oVQRfHrf9M2-19" style="edgeStyle=orthogonalEdgeStyle;rounded=0;orthogonalLoop=1;jettySize=auto;html=1;dashed=1;" edge="1" parent="1" source="dlkQqlAD6oVQRfHrf9M2-18" target="dlkQqlAD6oVQRfHrf9M2-9">
          <mxGeometry relative="1" as="geometry" />
        </mxCell>
        <mxCell id="dlkQqlAD6oVQRfHrf9M2-18" value="" style="shape=image;verticalLabelPosition=bottom;labelBackgroundColor=default;verticalAlign=top;aspect=fixed;imageAspect=0;image=https://seeklogo.com/images/O/open-ai-logo-8B9BFEDC26-seeklogo.com.png;" vertex="1" parent="1">
          <mxGeometry x="360.8" y="46.19999999999999" width="118.4" height="120" as="geometry" />
        </mxCell>
        <mxCell id="dlkQqlAD6oVQRfHrf9M2-27" style="edgeStyle=orthogonalEdgeStyle;rounded=0;orthogonalLoop=1;jettySize=auto;html=1;" edge="1" parent="1" source="dlkQqlAD6oVQRfHrf9M2-20" target="dlkQqlAD6oVQRfHrf9M2-26">
          <mxGeometry relative="1" as="geometry" />
        </mxCell>
        <mxCell id="dlkQqlAD6oVQRfHrf9M2-20" value="AGIR" style="rounded=1;whiteSpace=wrap;html=1;" vertex="1" parent="1">
          <mxGeometry x="590" y="240" width="120" height="60" as="geometry" />
        </mxCell>
        <mxCell id="dlkQqlAD6oVQRfHrf9M2-28" value="" style="edgeStyle=orthogonalEdgeStyle;rounded=0;orthogonalLoop=1;jettySize=auto;html=1;" edge="1" parent="1" source="dlkQqlAD6oVQRfHrf9M2-26" target="dlkQqlAD6oVQRfHrf9M2-20">
          <mxGeometry relative="1" as="geometry" />
        </mxCell>
        <mxCell id="dlkQqlAD6oVQRfHrf9M2-26" value="" style="shape=image;verticalLabelPosition=bottom;labelBackgroundColor=default;verticalAlign=top;aspect=fixed;imageAspect=0;image=https://www.pngarts.com/files/16/Ear-Vector-PNG-Photo.png;" vertex="1" parent="1">
          <mxGeometry x="580" y="36.2" width="140" height="140" as="geometry" />
        </mxCell>
        <mxCell id="dlkQqlAD6oVQRfHrf9M2-31" style="edgeStyle=orthogonalEdgeStyle;rounded=0;orthogonalLoop=1;jettySize=auto;html=1;startArrow=none;startFill=0;" edge="1" parent="1" source="dlkQqlAD6oVQRfHrf9M2-30" target="dlkQqlAD6oVQRfHrf9M2-10">
          <mxGeometry relative="1" as="geometry" />
        </mxCell>
        <mxCell id="dlkQqlAD6oVQRfHrf9M2-30" value="" style="sketch=0;html=1;dashed=0;whitespace=wrap;fillColor=#2875E2;strokeColor=#ffffff;points=[[0.005,0.63,0],[0.1,0.2,0],[0.9,0.2,0],[0.5,0,0],[0.995,0.63,0],[0.72,0.99,0],[0.5,1,0],[0.28,0.99,0]];verticalLabelPosition=bottom;align=center;verticalAlign=top;shape=mxgraph.kubernetes.icon;prIcon=api" vertex="1" parent="1">
          <mxGeometry x="120" y="456" width="50" height="48" as="geometry" />
        </mxCell>
        <mxCell id="dlkQqlAD6oVQRfHrf9M2-33" style="edgeStyle=orthogonalEdgeStyle;rounded=0;orthogonalLoop=1;jettySize=auto;html=1;" edge="1" parent="1" source="dlkQqlAD6oVQRfHrf9M2-32" target="dlkQqlAD6oVQRfHrf9M2-11">
          <mxGeometry relative="1" as="geometry" />
        </mxCell>
        <mxCell id="dlkQqlAD6oVQRfHrf9M2-32" value="" style="sketch=0;html=1;dashed=0;whitespace=wrap;fillColor=#2875E2;strokeColor=#ffffff;points=[[0.005,0.63,0],[0.1,0.2,0],[0.9,0.2,0],[0.5,0,0],[0.995,0.63,0],[0.72,0.99,0],[0.5,1,0],[0.28,0.99,0]];verticalLabelPosition=bottom;align=center;verticalAlign=top;shape=mxgraph.kubernetes.icon;prIcon=api" vertex="1" parent="1">
          <mxGeometry x="690" y="456" width="50" height="48" as="geometry" />
        </mxCell>
      </root>
    </mxGraphModel>
  </diagram>
</mxfile>
